<?xml version="1.0" standalone="no"?>
<!DOCTYPE svg PUBLIC "-//W3C//DTD SVG 20010904//EN"
 "http://www.w3.org/TR/2001/REC-SVG-20010904/DTD/svg10.dtd">
<svg version="1.0" xmlns="http://www.w3.org/2000/svg"
 width="375.000000pt" height="360.000000pt" viewBox="0 0 375.000000 360.000000"
 preserveAspectRatio="xMidYMid meet">
<metadata>
Created by potrace 1.15, written by Peter Selinger 2001-2017
</metadata>
<g transform="translate(0.000000,360.000000) scale(0.100000,-0.100000)"
fill="#000000" stroke="none">
<path d="M1395 3486 c-59 -27 -77 -46 -104 -106 -24 -52 -28 -163 -10 -236 11
-43 10 -48 -39 -147 -50 -100 -72 -175 -72 -242 0 -31 -5 -36 -62 -67 -120
-63 -236 -196 -289 -330 -27 -68 -48 -185 -49 -268 l0 -65 -43 -27 c-75 -48
-154 -139 -197 -230 -52 -109 -70 -180 -77 -310 l-6 -107 -57 -35 c-124 -77
-229 -225 -271 -383 -16 -61 -21 -108 -21 -213 0 -215 42 -340 153 -456 92
-95 196 -143 369 -169 169 -26 278 -19 515 35 189 42 246 45 405 21 419 -62
861 -85 1195 -61 643 47 935 245 935 635 0 258 -93 450 -276 572 l-51 34 -6
137 c-4 111 -10 153 -31 219 -45 140 -137 257 -263 337 -41 25 -43 29 -43 74
-1 177 -121 354 -297 438 -70 33 -82 43 -82 64 -1 37 -28 137 -52 195 -44 104
-136 229 -251 342 -130 126 -255 213 -412 289 -145 69 -207 84 -347 84 -99 0
-121 -3 -164 -24z m365 -56 c301 -107 623 -381 749 -637 32 -65 61 -172 61
-224 0 -32 3 -35 48 -51 194 -69 331 -254 332 -450 l0 -56 53 -30 c114 -65
210 -185 254 -317 23 -69 27 -99 28 -223 l3 -142 58 -39 c164 -107 242 -240
267 -448 37 -321 -124 -519 -499 -614 -355 -89 -932 -89 -1549 3 -172 25 -268
20 -450 -22 -71 -17 -174 -35 -227 -42 -173 -19 -399 20 -508 90 -58 37 -142
127 -170 181 -88 174 -83 465 12 644 43 81 140 183 218 229 l62 37 3 113 c3
127 20 199 69 304 39 83 131 185 205 229 l51 30 -6 55 c-7 67 11 195 38 270
48 129 170 268 293 331 l62 33 6 70 c6 89 33 166 92 266 l46 79 -17 33 c-9 18
-19 63 -22 99 -7 107 25 175 102 211 60 27 244 21 336 -12z"/>
<path d="M1510 3340 c-74 -17 -88 -76 -40 -167 17 -31 30 -64 30 -75 0 -22
-28 -79 -70 -141 -64 -95 -83 -154 -85 -257 l-2 -95 -83 -45 c-199 -107 -311
-272 -313 -460 0 -54 6 -90 21 -128 19 -49 19 -54 4 -59 -192 -66 -310 -211
-343 -422 -10 -65 -4 -141 16 -231 6 -23 1 -27 -52 -48 -130 -50 -239 -161
-295 -300 -19 -49 -22 -75 -22 -192 0 -118 3 -142 23 -193 70 -176 236 -268
486 -269 92 -1 135 5 265 35 85 20 201 41 257 47 93 10 118 9 265 -14 378 -58
778 -83 1062 -66 482 29 734 125 826 315 38 76 45 148 27 251 -30 166 -122
286 -275 359 -91 44 -87 33 -57 140 13 45 16 82 12 145 -13 193 -110 341 -276
423 l-66 32 0 105 c0 95 -3 110 -28 163 -53 107 -162 192 -292 228 l-60 16 3
66 c7 120 -48 250 -164 396 -203 253 -602 480 -774 441z m-2 -1321 c72 -35
123 -90 163 -173 39 -83 52 -155 46 -261 -10 -191 -115 -349 -261 -395 -58
-19 -156 -8 -208 23 -91 53 -163 154 -194 270 -18 67 -18 207 0 273 31 118
106 218 198 263 50 25 73 31 128 31 55 0 78 -6 128 -31z m1012 10 c68 -31 108
-66 151 -132 55 -85 79 -169 79 -276 0 -140 -36 -241 -117 -331 -56 -63 -128
-101 -203 -107 -137 -13 -269 85 -331 247 -27 68 -36 221 -20 302 39 187 176
318 330 318 45 0 81 -7 111 -21z m-684 -996 c253 -3 443 -1 495 5 89 11 121 4
142 -30 37 -58 -220 -258 -404 -315 -76 -23 -273 -23 -354 1 -144 43 -355 190
-401 278 -14 26 -13 30 11 54 22 22 32 25 63 19 20 -3 222 -9 448 -12z"/>
<path d="M1314 1840 c-109 -70 -127 -317 -32 -426 63 -71 148 -65 206 15 39
54 56 126 50 215 -11 163 -123 261 -224 196z"/>
<path d="M2344 1840 c-108 -70 -127 -317 -32 -425 81 -93 197 -52 243 85 27
80 18 199 -20 268 -47 87 -123 115 -191 72z"/>
</g>
</svg>
